<svg xmlns="http://www.w3.org/2000/svg" xml:space="preserve" width="377.947" height="377.947"><defs><clipPath clipPathUnits="userSpaceOnUse" id="a"><path d="M0 283.46h283.46V0H0z"/></clipPath></defs><g clip-path="url(#a)" transform="matrix(1.33333 0 0 -1.33333 0 377.947)"><path d="M0 0h-155.905c-35.224 0-63.78 28.556-63.78 63.78v155.906c0 35.224 28.556 63.779 63.78 63.779H0c35.225 0 63.78-28.555 63.78-63.779V63.78C63.78 28.556 35.225 0 0 0" style="fill:#f688b5;fill-opacity:1;fill-rule:nonzero;stroke:none" transform="translate(219.685 -.005)"/><path d="M0 0h-16.158v-39.764H1.917c12.758 0 27.646 3.826 27.646 20.415C29.563-2.126 13.184 0 0 0m36.576-124.4L6.596-73.366c-4.891 8.296-9.57 8.935-12.971 8.935h-9.783V-124.4h-33.176V25.732H-.639c33.816 0 64.648-7.657 64.648-43.168 0-25.093-19.567-36.364-32.75-38.49 6.17-10.845 31.684-48.912 45.508-68.474z" style="fill:#1f262f;fill-opacity:1;fill-rule:nonzero;stroke:none" transform="translate(137.114 191.19)"/></g></svg>